<mxfile host="app.diagrams.net" agent="Mozilla/5.0 (X11; Ubuntu; Linux x86_64; rv:131.0) Gecko/20100101 Firefox/131.0" version="24.7.17">
  <diagram name="Page-1" id="38b20595-45e3-9b7f-d5ca-b57f44c5b66d">
    <mxGraphModel dx="2462" dy="936" grid="1" gridSize="10" guides="1" tooltips="1" connect="1" arrows="1" fold="1" page="1" pageScale="1" pageWidth="1100" pageHeight="850" background="none" math="0" shadow="0">
      <root>
        <mxCell id="0" />
        <mxCell id="1" parent="0" />
        <mxCell id="0RA5vAyCi1M80JIZ3hyP-1" value="" style="verticalLabelPosition=bottom;html=1;verticalAlign=top;align=center;shape=mxgraph.floorplan.wallU;fillColor=strokeColor;direction=south;" parent="1" vertex="1">
          <mxGeometry x="800" y="30" width="1330" height="980" as="geometry" />
        </mxCell>
        <mxCell id="0RA5vAyCi1M80JIZ3hyP-69" value="Desk" style="shape=rect;shadow=0;html=1;direction=east;" parent="1" vertex="1">
          <mxGeometry x="1920" y="40" width="200" height="100" as="geometry" />
        </mxCell>
        <mxCell id="0RA5vAyCi1M80JIZ3hyP-122" value="" style="verticalLabelPosition=bottom;html=1;verticalAlign=top;align=center;shape=mxgraph.floorplan.wallU;fillColor=strokeColor;direction=north;" parent="1" vertex="1">
          <mxGeometry x="230" y="470" width="570" height="540" as="geometry" />
        </mxCell>
        <mxCell id="2MODIx7R60a1VgAi5Oh5-1" value="" style="verticalLabelPosition=bottom;html=1;verticalAlign=top;align=center;shape=mxgraph.floorplan.doorLeft;aspect=fixed;direction=north;" parent="1" vertex="1">
          <mxGeometry x="230" y="910" width="85" height="80" as="geometry" />
        </mxCell>
        <mxCell id="2MODIx7R60a1VgAi5Oh5-27" value="" style="shape=rect;shadow=0;html=1;direction=north;" parent="1" vertex="1">
          <mxGeometry x="2380" y="120" width="100" height="200" as="geometry" />
        </mxCell>
        <mxCell id="2MODIx7R60a1VgAi5Oh5-50" value="Book Case" style="shape=rect;shadow=0;html=1;direction=west;" parent="1" vertex="1">
          <mxGeometry x="2310" y="430" width="120" height="40" as="geometry" />
        </mxCell>
        <mxCell id="bsD3-bv0s14A_Ypd2Ab5-15" value="" style="shape=rect;shadow=0;html=1;direction=west;" parent="1" vertex="1">
          <mxGeometry x="2150" y="420" width="120" height="40" as="geometry" />
        </mxCell>
        <mxCell id="pyvdmrVEofFzowaQO4cl-8" value="" style="shape=rect;shadow=0;html=1;direction=north;fillColor=#eeeeee;strokeColor=#36393d;" vertex="1" parent="1">
          <mxGeometry x="240" y="480" width="100" height="200" as="geometry" />
        </mxCell>
        <mxCell id="pyvdmrVEofFzowaQO4cl-17" value="" style="shape=rect;shadow=0;html=1;direction=north;" vertex="1" parent="1">
          <mxGeometry x="1820" y="40" width="100" height="200" as="geometry" />
        </mxCell>
        <mxCell id="pyvdmrVEofFzowaQO4cl-18" value="" style="shape=rect;shadow=0;html=1;direction=north;" vertex="1" parent="1">
          <mxGeometry x="1820" y="240" width="100" height="200" as="geometry" />
        </mxCell>
        <mxCell id="pyvdmrVEofFzowaQO4cl-23" value="" style="shape=rect;shadow=0;html=1;direction=north;fillColor=#eeeeee;strokeColor=#36393d;" vertex="1" parent="1">
          <mxGeometry x="240" y="680" width="100" height="200" as="geometry" />
        </mxCell>
        <mxCell id="pyvdmrVEofFzowaQO4cl-30" value="" style="shape=rect;shadow=0;html=1;direction=east;" vertex="1" parent="1">
          <mxGeometry x="1500" y="40" width="200" height="100" as="geometry" />
        </mxCell>
        <mxCell id="pyvdmrVEofFzowaQO4cl-31" value="" style="shape=rect;shadow=0;html=1;direction=north;" vertex="1" parent="1">
          <mxGeometry x="1400" y="40" width="100" height="200" as="geometry" />
        </mxCell>
        <mxCell id="pyvdmrVEofFzowaQO4cl-39" value="" style="shape=rect;shadow=0;html=1;direction=south;" vertex="1" parent="1">
          <mxGeometry x="1400" y="240" width="100" height="200" as="geometry" />
        </mxCell>
        <mxCell id="pyvdmrVEofFzowaQO4cl-41" value="" style="shape=rect;shadow=0;html=1;direction=east;" vertex="1" parent="1">
          <mxGeometry x="2530" y="490" width="200" height="100" as="geometry" />
        </mxCell>
        <mxCell id="pyvdmrVEofFzowaQO4cl-42" value="" style="shape=rect;shadow=0;html=1;direction=east;" vertex="1" parent="1">
          <mxGeometry x="1920" y="700" width="200" height="100" as="geometry" />
        </mxCell>
        <mxCell id="pyvdmrVEofFzowaQO4cl-43" value="" style="shape=rect;shadow=0;html=1;direction=north;" vertex="1" parent="1">
          <mxGeometry x="2020" y="800" width="100" height="200" as="geometry" />
        </mxCell>
        <mxCell id="pyvdmrVEofFzowaQO4cl-44" value="" style="shape=rect;shadow=0;html=1;direction=east;" vertex="1" parent="1">
          <mxGeometry x="1080" y="40" width="200" height="100" as="geometry" />
        </mxCell>
        <mxCell id="pyvdmrVEofFzowaQO4cl-45" value="" style="shape=rect;shadow=0;html=1;direction=north;" vertex="1" parent="1">
          <mxGeometry x="980" y="40" width="100" height="200" as="geometry" />
        </mxCell>
        <mxCell id="pyvdmrVEofFzowaQO4cl-46" value="" style="shape=rect;shadow=0;html=1;direction=south;" vertex="1" parent="1">
          <mxGeometry x="980" y="240" width="100" height="200" as="geometry" />
        </mxCell>
        <mxCell id="pyvdmrVEofFzowaQO4cl-47" value="" style="verticalLabelPosition=bottom;html=1;verticalAlign=top;align=center;shape=mxgraph.floorplan.wall;fillColor=strokeColor;direction=south;" vertex="1" parent="1">
          <mxGeometry x="790" y="30" width="10" height="440" as="geometry" />
        </mxCell>
      </root>
    </mxGraphModel>
  </diagram>
</mxfile>
